<?xml version="1.0" encoding="utf-8"?>
<svg version="1.1" xmlns:xlink="http://www.w3.org/1999/xlink" width="9px" height="71px" xmlns="http://www.w3.org/2000/svg">
  <g transform="matrix(1 0 0 1 -354 -4966 )">
    <path d="M 8.845360824742267 33.86372745490982  C 8.948453608247425 34.3380093520374  9 34.883433533734134  9 35.5  C 9 36.11656646626586  8.948453608247425 36.66199064796259  8.845360824742267 37.13627254509018  L 1.6391752577319587 70.28857715430861  C 1.5360824742268042 70.76285905143621  1.4175257731958761 71  1.2835051546391751 71  C 1.1494845360824744 71  1.0309278350515465 70.76285905143621  0.9278350515463917 70.28857715430861  L 0.15463917525773196 66.7314629258517  C 0.05154639175257736 66.2571810287241  0 65.71175684702739  0 65.09519038076152  C 0 64.47862391449566  0.05154639175257736 63.93319973279893  0.15463917525773196 63.45891783567134  L 6.231958762886598 35.5  L 0.15463917525773196 7.541082164328657  C 0.05154639175257736 7.0668002672010655  0 6.52137608550434  0 5.904809619238479  C 0 5.288243152972603  0.05154639175257736 4.742818971275876  0.15463917525773196 4.268537074148293  L 0.9278350515463917 0.7114228456913835  C 1.0309278350515465 0.23714094856379186  1.1494845360824744 0  1.2835051546391751 0  C 1.4175257731958761 0  1.5360824742268042 0.23714094856379186  1.6391752577319587 0.7114228456913835  L 8.845360824742267 33.86372745490982  Z " fill-rule="nonzero" fill="#ffffff" stroke="none" transform="matrix(1 0 0 1 354 4966 )" />
  </g>
</svg>