<?xml version="1.0" encoding="utf-8"?>
<svg version="1.1" xmlns:xlink="http://www.w3.org/1999/xlink" width="41px" height="71px" xmlns="http://www.w3.org/2000/svg">
  <g transform="matrix(1 0 0 1 -1637 -4966 )">
    <path d="M 40.29553264604811 33.86372745490982  C 40.76517754868271 34.3380093520374  41 34.883433533734134  41 35.5  C 41 36.11656646626586  40.76517754868271 36.66199064796259  40.29553264604811 37.13627254509018  L 7.467353951890034 70.28857715430861  C 6.997709049255441 70.76285905143621  6.457617411225659 71  5.847079037800687 71  C 5.236540664375717 71  4.696449026345934 70.76285905143621  4.22680412371134 70.28857715430861  L 0.7044673539518901 66.7314629258517  C 0.23482245131729684 66.2571810287241  0 65.71175684702739  0 65.09519038076152  C 0 64.47862391449566  0.23482245131729684 63.93319973279893  0.7044673539518901 63.45891783567134  L 28.39003436426117 35.5  L 0.7044673539518901 7.541082164328657  C 0.23482245131729684 7.0668002672010655  0 6.52137608550434  0 5.904809619238479  C 0 5.288243152972603  0.23482245131729684 4.742818971275876  0.7044673539518901 4.268537074148293  L 4.22680412371134 0.7114228456913835  C 4.696449026345934 0.23714094856379186  5.236540664375717 0  5.847079037800687 0  C 6.457617411225659 0  6.997709049255441 0.23714094856379186  7.467353951890034 0.7114228456913835  L 40.29553264604811 33.86372745490982  Z " fill-rule="nonzero" fill="#ffffff" stroke="none" transform="matrix(1 0 0 1 1637 4966 )" />
  </g>
</svg>