<?xml version="1.0" encoding="utf-8"?>
<svg version="1.1" xmlns:xlink="http://www.w3.org/1999/xlink" width="9px" height="71px" xmlns="http://www.w3.org/2000/svg">
  <g transform="matrix(1 0 0 1 -16 -4957 )">
    <path d="M 0.1546391752577324 33.86372745490982  C 0.05154639175257614 34.3380093520374  0 34.883433533734134  0 35.5  C 0 36.11656646626586  0.05154639175257614 36.66199064796259  0.1546391752577324 37.13627254509018  L 7.360824742268041 70.28857715430861  C 7.463917525773195 70.76285905143621  7.582474226804123 71  7.716494845360826 71  C 7.850515463917526 71  7.969072164948454 70.76285905143621  8.072164948453608 70.28857715430861  L 8.845360824742267 66.7314629258517  C 8.948453608247423 66.2571810287241  9 65.71175684702739  9 65.09519038076152  C 9 64.47862391449566  8.948453608247423 63.93319973279893  8.845360824742267 63.45891783567134  L 2.768041237113402 35.5  L 8.845360824742267 7.541082164328657  C 8.948453608247423 7.0668002672010655  9 6.52137608550434  9 5.904809619238479  C 9 5.288243152972603  8.948453608247423 4.742818971275876  8.845360824742267 4.268537074148293  L 8.072164948453608 0.7114228456913835  C 7.969072164948454 0.23714094856379186  7.850515463917526 0  7.716494845360826 0  C 7.582474226804123 0  7.463917525773195 0.23714094856379186  7.360824742268041 0.7114228456913835  L 0.1546391752577324 33.86372745490982  Z " fill-rule="nonzero" fill="#ffffff" stroke="none" transform="matrix(1 0 0 1 16 4957 )" />
  </g>
</svg>