<svg width="448" height="212" viewBox="0 0 448 212" fill="none" xmlns="http://www.w3.org/2000/svg">
<path d="M444.153 210H2.5376V1.05286H444.153V210Z" fill="white"/>
<path d="M327.014 160.866C328.32 160.866 329.37 160.423 330.164 159.537C330.958 158.65 331.355 157.473 331.355 156.005C331.355 154.526 330.958 153.337 330.164 152.438C329.37 151.539 328.32 151.09 327.014 151.09C325.707 151.09 324.655 151.543 323.854 152.447C323.054 153.35 322.654 154.536 322.654 156.005C322.654 157.473 323.054 158.65 323.854 159.537C324.655 160.423 325.707 160.866 327.014 160.866ZM340.836 156.005C340.836 157.896 340.5 159.654 339.829 161.28C339.159 162.907 338.176 164.36 336.881 165.64C335.588 166.896 334.094 167.859 332.407 168.528C330.719 169.198 328.92 169.532 327.014 169.532C325.083 169.532 323.277 169.198 321.595 168.528C319.911 167.859 318.418 166.884 317.111 165.604C315.827 164.36 314.857 162.927 314.198 161.307C313.54 159.686 313.21 157.918 313.21 156.005C313.21 154.09 313.54 152.318 314.198 150.685C314.857 149.053 315.827 147.614 317.111 146.37C318.406 145.101 319.893 144.136 321.577 143.473C323.259 142.809 325.071 142.476 327.014 142.476C328.956 142.476 330.768 142.809 332.451 143.473C334.132 144.136 335.628 145.101 336.934 146.37C338.205 147.626 339.172 149.072 339.837 150.703C340.502 152.335 340.836 154.102 340.836 156.005Z" fill="black"/>
<path d="M230.456 168.898V151.548H225.284V143.111H244.914V151.548H239.742V168.898H230.456Z" fill="black"/>
<path d="M253.771 168.898V143.111H263.075V151.689H268.742V143.111H278.026V168.898H268.742V159.81H263.075V168.898H253.771Z" fill="black"/>
<path d="M287.752 168.869V143.083H305.035V150.075H296.862V152.558H304.275V159.164H296.862V161.876H305.246V168.869H287.752Z" fill="black"/>
<path d="M358.454 149.723V154.76H359.9C360.784 154.76 361.464 154.547 361.94 154.117C362.416 153.688 362.655 153.076 362.655 152.277C362.655 151.454 362.416 150.823 361.94 150.384C361.464 149.943 360.784 149.723 359.9 149.723H358.454ZM349.345 168.869V143.081H361.031C364.421 143.081 367.009 143.828 368.798 145.319C370.587 146.811 371.482 148.96 371.482 151.765C371.482 153.597 371.031 155.107 370.131 156.292C369.231 157.48 368.015 158.172 366.485 158.371L373.387 168.869H362.972L358.454 160.362V168.869H349.345Z" fill="black"/>
<path d="M385.975 168.897V157.501L377.327 143.111H387.917L390.089 148.113C390.289 148.547 390.524 149.193 390.795 150.051C390.819 150.132 390.836 150.197 390.848 150.245C390.977 149.834 391.202 149.229 391.518 148.429C391.577 148.289 391.618 148.189 391.642 148.131L393.777 143.111H404.299L395.332 157.501V168.897H385.975Z" fill="black"/>
<path d="M123.959 58.5029L83.1071 79.3809L92.1944 97.0849L104.003 91.0488C104.698 93.163 104.509 95.185 103.44 97.1175C102.371 99.0499 100.528 100.685 97.9172 102.02C93.515 104.27 89.3589 104.542 85.4476 102.837C81.535 101.136 78.2139 97.625 75.4845 92.3067C72.8434 87.1609 71.9322 82.4506 72.7564 78.1745C73.5778 73.9012 76.0013 70.7352 80.0227 68.6807C82.3265 67.5028 84.6371 66.9708 86.9531 67.0875C89.2691 67.2029 91.6001 67.9832 93.9474 69.423L113.319 48.3468C106.155 43.57 97.5554 40.7677 88.2913 40.7677C63.3699 40.7677 43.1675 60.9265 43.1675 85.7943C43.1675 110.662 63.3699 130.822 88.2913 130.822C113.214 130.822 133.417 110.662 133.417 85.7943C133.417 75.4822 129.804 66.0942 123.959 58.5029Z" fill="black"/>
<path d="M168.052 97.5119H180.91L178.269 87.786C176.977 82.8654 176.097 79.0779 175.626 76.4222C175.158 73.7664 174.864 71.2654 174.746 68.9232H174.216C174.099 71.2654 173.805 73.7664 173.336 76.4222C172.867 79.0779 171.987 82.8654 170.693 87.786L168.052 97.5119ZM127.074 128.678L157.719 42.9114H192.123L222.183 128.678H188.954L186.194 117.899H162.886L160.245 128.678H127.074Z" fill="black"/>
<path d="M346.12 128.678V42.9114H404.298V66.1697H376.413V74.4287H401.072V96.3992H376.413V105.421H404.298V128.678H346.12Z" fill="black"/>
<path d="M311.529 128.678L307.771 94.7001C307.535 92.0838 307.301 89.4755 307.066 86.8795C306.832 84.2821 306.635 81.6739 306.478 79.0589C306.126 81.5178 305.628 84.1247 304.982 86.8795C304.336 89.6329 303.543 92.5723 302.605 95.6962L292.742 128.678H274.365L264.501 95.6962C263.523 92.5723 262.72 89.6329 262.094 86.8795C261.468 84.1247 260.98 81.5178 260.627 79.0589C260.431 81.7146 260.224 84.3296 260.011 86.908C259.794 89.4864 259.571 92.0838 259.336 94.7001L255.577 128.678H225.284L239.962 42.9114H271.84L277.946 64.1192C278.142 64.7842 278.435 65.7789 278.827 67.1074C281.411 76.0517 282.995 83.4136 283.582 89.1933H284.111C284.581 85.5618 285.284 81.6943 286.224 77.5933C287.164 73.4923 288.416 68.8838 289.982 63.7664L296.38 42.9114H328.202L341.822 128.678H311.529Z" fill="black"/>
<path d="M430.113 194.657H17.19V17.1529H430.113V194.657ZM430.113 -6.10352e-05H17.19H0V17.1529V194.657V211.81H17.19H430.113H447.303V194.657V17.1529V-6.10352e-05H430.113Z" fill="black"/>
</svg>
