<?xml version="1.0" encoding="utf-8"?>
<svg version="1.1" xmlns:xlink="http://www.w3.org/1999/xlink" width="65px" height="65px" xmlns="http://www.w3.org/2000/svg">
  <g transform="matrix(1 0 0 1 -228 -448 )">
    <path d="M 260.5 449  C 278.14 449  292 462.86  292 480.5  C 292 498.14  278.14 512  260.5 512  C 242.85999999999999 512  229 498.14  229 480.5  C 229 462.86  242.85999999999999 449  260.5 449  Z " fill-rule="nonzero" fill="#ffffff" stroke="none" fill-opacity="0" />
    <path d="M 260.5 449  C 278.14 449  292 462.86  292 480.5  C 292 498.14  278.14 512  260.5 512  C 242.85999999999999 512  229 498.14  229 480.5  C 229 462.86  242.85999999999999 449  260.5 449  Z " stroke-width="2" stroke="#ffffff" fill="none" />
  </g>
</svg>