<?xml version="1.0" encoding="utf-8"?>
<svg version="1.1" xmlns:xlink="http://www.w3.org/1999/xlink" width="41px" height="71px" xmlns="http://www.w3.org/2000/svg">
  <g transform="matrix(1 0 0 1 -78 -3678 )">
    <path d="M 0.7044673539518921 33.86372745490982  C 0.2348224513172913 34.3380093520374  0 34.883433533734134  0 35.5  C 0 36.11656646626586  0.2348224513172913 36.66199064796259  0.7044673539518921 37.13627254509018  L 33.53264604810997 70.28857715430861  C 34.00229095074456 70.76285905143621  34.542382588774345 71  35.15292096219932 71  C 35.76345933562428 71  36.30355097365406 70.76285905143621  36.77319587628866 70.28857715430861  L 40.29553264604811 66.7314629258517  C 40.7651775486827 66.2571810287241  41 65.71175684702739  41 65.09519038076152  C 41 64.47862391449566  40.7651775486827 63.93319973279893  40.29553264604811 63.45891783567134  L 12.609965635738833 35.5  L 40.29553264604811 7.541082164328657  C 40.7651775486827 7.0668002672010655  41 6.52137608550434  41 5.904809619238479  C 41 5.288243152972603  40.7651775486827 4.742818971275876  40.29553264604811 4.268537074148293  L 36.77319587628866 0.7114228456913835  C 36.30355097365406 0.23714094856379186  35.76345933562428 0  35.15292096219932 0  C 34.542382588774345 0  34.00229095074456 0.23714094856379186  33.53264604810997 0.7114228456913835  L 0.7044673539518921 33.86372745490982  Z " fill-rule="nonzero" fill="#ffffff" stroke="none" transform="matrix(1 0 0 1 78 3678 )" />
  </g>
</svg>