<?xml version="1.0" encoding="utf-8"?>
<svg version="1.1" xmlns:xlink="http://www.w3.org/1999/xlink" width="42px" height="42px" xmlns="http://www.w3.org/2000/svg">
  <g transform="matrix(1 0 0 1 -1694 -25 )">
    <path d="M 1715 25  C 1726.76 25  1736 34.239999999999995  1736 46  C 1736 57.76  1726.76 67  1715 67  C 1703.24 67  1694 57.76  1694 46  C 1694 34.239999999999995  1703.24 25  1715 25  Z " fill-rule="nonzero" fill="#ffffff" stroke="none" />
    <path d="M 1715 25.5  C 1726.48 25.5  1735.5 34.519999999999996  1735.5 46  C 1735.5 57.480000000000004  1726.48 66.5  1715 66.5  C 1703.52 66.5  1694.5 57.480000000000004  1694.5 46  C 1694.5 34.519999999999996  1703.52 25.5  1715 25.5  Z " stroke-width="1" stroke="#080d37" fill="none" />
  </g>
</svg>